<?xml version="1.0" encoding="UTF-8" standalone="no"?>
<!-- Created with Inkscape (http://www.inkscape.org/) -->

<svg
   version="1.1"
   id="svg2"
   xml:space="preserve"
   width="40"
   height="93.333336"
   viewBox="0 0 40 93.333336"
   sodipodi:docname="betr_logo_30x70.ai"
   xmlns:inkscape="http://www.inkscape.org/namespaces/inkscape"
   xmlns:sodipodi="http://sodipodi.sourceforge.net/DTD/sodipodi-0.dtd"
   xmlns="http://www.w3.org/2000/svg"
   xmlns:svg="http://www.w3.org/2000/svg"><defs
     id="defs6"><clipPath
       clipPathUnits="userSpaceOnUse"
       id="clipPath18"><path
         d="M 0,70 H 30 V 0 H 0 Z"
         id="path16" /></clipPath></defs><sodipodi:namedview
     id="namedview4"
     pagecolor="#ffffff"
     bordercolor="#666666"
     borderopacity="1.0"
     inkscape:pageshadow="2"
     inkscape:pageopacity="0.0"
     inkscape:pagecheckerboard="0" /><g
     id="g8"
     inkscape:groupmode="layer"
     inkscape:label="betr_logo_30x70"
     transform="matrix(1.3333333,0,0,-1.3333333,0,93.333333)"><path
       d="M 0,0 H 30 V 70 H 0 Z"
       style="fill:#093ad3;fill-opacity:1;fill-rule:nonzero;stroke:none"
       id="path10" /><g
       id="g12"><g
         id="g14"
         clip-path="url(#clipPath18)"><g
           id="g20"
           transform="translate(19.0851,15.6655)"><path
             d="m 0,0 c 0,-0.303 -0.245,-0.548 -0.548,-0.548 h -7.524 c -0.291,0 -0.527,0.236 -0.527,0.527 v 2.635 c 0,0.198 0.079,0.379 0.218,0.527 0.142,0.15 0.442,0.455 0.587,0.587 0.144,0.13 0.308,0.203 0.492,0.203 h 1.701 c 0.279,0 0.505,-0.225 0.505,-0.504 V 0.212 c 0,-0.176 0.197,-0.253 0.319,-0.142 l 4.453,4.469 C -0.203,4.66 0.001,4.575 0.001,4.405 Z m -2.449,8.219 -1.758,-1.76 c 0,0 -0.774,0.774 -1.756,1.756 -0.982,0.981 -2.476,0.936 -3.559,0 -1.018,-0.88 -2.644,-2.63 -3.073,-3.074 -0.46,-0.475 -0.725,-1.093 -0.725,-1.749 v -5.507 c 0,-1.31 1.061,-2.371 2.371,-2.371 H 2.564 c 1.295,0 2.344,1.049 2.344,2.344 V 3.389 C 4.908,4.047 4.637,4.668 4.182,5.143 3.756,5.589 2.151,7.351 1.105,8.22 -0.066,9.194 -1.468,9.201 -2.449,8.219"
             style="fill:#84ffe5;fill-opacity:1;fill-rule:nonzero;stroke:none"
             id="path22" /></g><g
           id="g24"
           transform="translate(19.743,32.4199)"><path
             d="m 0,0 c 0,1.554 -1.142,2.49 -3.07,2.49 -1.929,0 -3.071,-0.936 -3.071,-2.49 0,-1.61 1.142,-2.546 3.071,-2.546 C -1.142,-2.546 0,-1.61 0,0 m 0.281,-2.588 v 0 c 0,-0.049 0.04,-0.089 0.089,-0.089 l 1.034,-0.111 v -1.593 h -12.75 v 1.835 h 4.838 c 0.047,0 0.086,0.039 0.086,0.086 v 0 c 0,0.028 -0.013,0.054 -0.036,0.07 -0.838,0.6 -1.274,1.527 -1.274,2.708 0,2.359 1.928,4.044 4.662,4.044 2.733,0 4.661,-1.685 4.661,-4.1 0,-1.146 -0.438,-2.091 -1.278,-2.782 -0.02,-0.017 -0.032,-0.042 -0.032,-0.068"
             style="fill:#84ffe5;fill-opacity:1;fill-rule:nonzero;stroke:none"
             id="path26" /></g><g
           id="g28"
           transform="translate(15.8113,44.152)"><path
             d="m 0,0 c 0,0.092 -0.081,0.162 -0.172,0.15 -1.252,-0.159 -2.075,-1.072 -2.075,-2.38 0,-1.25 0.784,-2.108 2.059,-2.412 C -0.092,-4.665 0,-4.593 0,-4.495 Z m 1.054,-6.589 c -2.835,-0.084 -4.855,1.696 -4.855,4.359 0,2.509 1.742,4.157 4.4,4.157 0.191,0 0.462,-0.016 0.725,-0.034 C 1.358,1.891 1.385,1.862 1.385,1.827 v -6.314 c 0,-0.134 0.122,-0.238 0.254,-0.214 1.443,0.259 2.33,1.226 2.33,2.696 0,1.177 -0.56,1.885 -1.378,2.175 C 2.564,0.18 2.546,0.204 2.546,0.232 v 1.559 c 0,0.041 0.038,0.073 0.079,0.066 C 4.319,1.542 5.541,0.056 5.523,-2.107 5.503,-4.555 3.5,-6.516 1.054,-6.589"
             style="fill:#84ffe5;fill-opacity:1;fill-rule:nonzero;stroke:none"
             id="path30" /></g><g
           id="g32"
           transform="translate(18.8631,48.1303)"><path
             d="m 0,0 h -5.167 v -2.059 h -1.498 v 0.954 c 0,1.161 -0.674,1.292 -1.854,1.292 h -0.936 v 1.648 h 2.79 v 2.452 h 1.498 V 1.835 H -0.3 c 0.693,0 1.011,0.299 1.011,1.179 V 4.287 H 2.284 V 2.322 C 2.284,0.805 1.591,0 0,0"
             style="fill:#84ffe5;fill-opacity:1;fill-rule:nonzero;stroke:none"
             id="path34" /></g><g
           id="g36"
           transform="translate(12.1979,53.6721)"><path
             d="M 0,0 V 1.648 L 1.239,1.78 c 0.111,0 0.147,0.112 0.074,0.15 L 1.254,1.966 C 0.356,2.659 -0.187,3.426 -0.187,4.812 V 5.149 H 1.554 V 4.456 c 0,-1.704 0.955,-2.621 2.509,-2.621 H 8.949 V 0 Z"
             style="fill:#84ffe5;fill-opacity:1;fill-rule:nonzero;stroke:none"
             id="path38" /></g></g></g></g></svg>
