<svg xmlns="http://www.w3.org/2000/svg" width="36" height="80" fill="none" style=""><rect id="backgroundrect" width="100%" height="100%" x="0" y="0" fill="none" stroke="none" class="" style=""/>



<g class="currentLayer" style=""><title>Layer 1</title><path d="M619.9998000000003,125.10010004043579 C621.0998000000002,123.70010004043579 621.6998000000002,122.20010004043579 621.6998000000002,120.70010004043579 C621.6998000000002,119.0001000404358 620.9998000000003,117.60010004043579 619.6998000000002,116.4001000404358 C618.3998000000003,115.20010004043579 616.4998000000003,114.60010004043579 614.0998000000002,114.60010004043579 H609.6998000000002 V127.10010004043579 H614.0998000000002 C616.8998000000003,127.20010004043579 618.8998000000003,126.5001000404358 619.9998000000003,125.10010004043579 z" fill="white" id="svg_1" class=""/><path d="M622.1998000000002,143.6001000404358 C620.6998000000002,142.4001000404358 618.4998000000003,141.80010004043578 615.5998000000002,141.80010004043578 H609.7998000000002 V155.1001000404358 H615.9998000000003 C619.1998000000002,155.1001000404358 621.3998000000003,154.5001000404358 622.5998000000002,153.30010004043578 C623.7998000000002,152.1001000404358 624.4998000000003,150.5001000404358 624.4998000000003,148.5001000404358 C624.3998000000003,146.5001000404358 623.5998000000002,144.80010004043578 622.1998000000002,143.6001000404358 z" fill="white" id="svg_2" class=""/><path d="M43.33873309924351,30.30355788848857 C39.321092837265866,30.30355788848857 35.821564554774085,32.627496493275075 33.99453810079777,36.06576861645465 V28.551086778613126 H29.74056605870385 L25.068468559481005,34.74189098453788 L20.396371060258105,28.551086778613126 H16.142399018164127 V31.646493643725258 C15.724273561035261,31.113123346854948 15.242520316951953,30.646432670855518 14.697139285914261,30.227363492407058 C13.86997805550709,29.59875972473432 12.906471567340532,29.15111764775523 11.806619821414529,28.88443726146987 C10.706768075488526,28.61775687518447 9.516019491056227,28.59870827616409 8.225284384267013,28.836815763918906 C6.934549277477856,29.074923251673724 5.81651816385056,29.522565328652774 4.871191043385295,30.16069339583568 C3.925863922919916,30.808345762528788 3.171420163317805,31.57029924764371 2.589680396877611,32.456059102091636 C2.0170303142880357,33.34181895653953 1.6170842248603776,34.303773207069 1.4080214962958735,35.33239755416982 C1.389842128594637,35.41811624976158 1.3807524447440187,35.494310645843086 1.3625730770427253,35.58002934143481 C1.2898556062377793,35.48478634633288 1.2171381354327195,35.389543351230955 1.1353309807770984,35.29430035612903 C0.653577736693819,34.72284238551747 0.0718379702536256,34.26567600902825 -0.5917089508422464,33.9323255261715 C-1.2643455557887364,33.58945074380455 -2.0006099476895542,33.398964753600694 -2.8186814942461638,33.35134325604973 C-3.6367530408026596,33.30372175849877 -4.491183322761685,33.44658625115166 -5.381972340123298,33.78946103351861 C-6.2727613574847965,34.13233581588557 -7.018115433236403,34.59902649188499 -7.6180345673777765,35.180008762006764 C-8.208864017668645,35.77051533163866 -8.66334821020007,36.418167698331814 -8.972397461121432,37.122965862086055 C-9.281446712042793,37.83728832535051 -9.445061021354036,38.57065938763534 -9.472330072905947,39.33260334845075 C-9.499599124457859,40.09454730926617 -9.39052291825027,40.82791837155099 -9.145101454283349,41.53271653530524 C-9.063294299627728,41.76129972354989 -8.972397461121432,41.98988291179454 -8.863321254913842,42.20894180052893 C-8.87241093876446,42.20894180052893 -8.890590306465697,42.19941750101873 -8.899679990316372,42.19941750101873 C-9.29962607974403,42.085125906896465 -9.717751536872925,42.06607730787604 -10.16314604555373,42.1422717039576 C-9.954083316989227,41.75177542403972 -9.845007110781694,41.33270624559122 -9.854096794632369,40.89458846812238 C-9.854096794632369,40.38980059408212 -9.981352368541138,39.904061319062315 -10.226773832508115,39.465943541593475 C-10.408567509520651,39.1421173582469 -10.64489928963701,38.87543697196149 -10.935769172857022,38.665902382737265 C-11.226639056077204,38.45636779351303 -11.572047042401039,38.32302760037035 -11.944724080276842,38.26588180330918 C-12.32649080200315,38.208736006248 -12.744616259132044,38.227784605268425 -13.19001076781285,38.33255189988052 C-13.635405276493657,38.437319194492616 -14.117158520576936,38.637329484206674 -14.62618081621207,38.94210706853288 L-17.74392419760983,40.82791837155099 L-12.853692465339577,49.70456551505062 L-9.526868176009714,47.69493831839994 C-8.954218093420138,47.352063536032986 -8.499733900888714,46.98061585513549 -8.172505282266116,46.59011957521757 C-7.845276663643517,46.19962329529966 -7.6180345673777765,45.80912701538178 -7.499868677319682,45.41863073546391 C-7.381702787261474,45.02813445554599 -7.345344051858945,44.63763817562807 -7.408971838813386,44.24714189571016 C-7.4180615226639475,44.18047179913886 -7.436240890365241,44.10427740305727 -7.445330574215859,44.03760730648597 C-7.099922587892024,44.332860591301916 -6.718155866165603,44.590016678077106 -6.309120092887383,44.79955126730138 C-5.636483487940893,45.142426049668295 -4.9002190960400185,45.33291203987215 -4.082147549483466,45.38053353742311 C-3.264076002926913,45.428155034974075 -2.4096457209678874,45.285290542321185 -1.518856703606275,44.94241575995427 C-0.6280676862447765,44.59954097758732 0.11728638950677328,44.132850301587894 0.7172055236482038,43.55186803146612 C1.317124657789691,42.961361461834144 1.7625191664704403,42.31370909514107 2.071568417391802,41.60891093138683 C2.15337557204748,41.41842494118298 2.2170033590018647,41.23746325048929 2.2806311459562494,41.04697726028544 C2.3169898813587224,41.113647356856774 2.3624383006118705,41.18984175293833 2.3987970360143436,41.256511849509664 C2.935088383201446,42.151796003467766 3.6168146719985543,42.91373996428318 4.443975902405725,43.54234373195591 C5.271137132812896,44.170947499628646 6.234643620979455,44.6185895766077 7.3344953669054584,44.8852699628931 C8.43434711283146,45.15195034917846 9.62509569726376,45.17099894819888 10.915830804052916,44.93289146044406 C12.206565910842187,44.694783972689244 13.324597024469426,44.24714189571016 14.269924144934777,43.609013828527296 C14.997098852985005,43.11375025399724 15.6151973548277,42.53276798387547 16.124219650462862,41.89463991669261 V44.65668677464849 H21.28716007761966 V37.09439296355547 L25.050289191779683,41.123171656366985 L28.813418305939763,37.09439296355547 V44.65668677464849 H33.05830066418309 C34.358125454822925,49.3140692351327 38.45757287145622,52.704719860761315 43.320553731542276,52.704719860761315 C49.22884823445054,52.704719860761315 54.01002193988097,47.68541401888973 54.01002193988097,41.50414363677469 C54.01002193988097,35.322873254659655 49.24702760215183,30.30355788848857 43.33873309924351,30.30355788848857 zM-12.371939221256298,41.90416421620278 C-12.408297956658828,42.12322310493722 -12.571912265970127,42.32323339465128 -12.871871833040814,42.504195085344925 L-13.308176657871059,42.77087547163029 L-14.062620417473113,41.399376342162554 L-13.626315592642982,41.132695955877196 C-13.362714760974825,40.97078286420388 -13.126382980858466,40.913637067142716 -12.917320252293962,40.96125856469368 C-12.708257523729571,41.00888006224464 -12.562822582119452,41.113647356856774 -12.453746375911976,41.30413334706063 C-12.36284953740568,41.47557073824411 -12.335580485853825,41.67558102795813 -12.371939221256298,41.90416421620278 zM-10.181325413254967,45.17099894819888 C-10.235863516358677,45.38053353742311 -10.444926244923124,45.59006812664734 -10.790334231247016,45.799602715871615 L-11.426612100790976,46.19009899578949 L-12.23559396349691,44.732881170729996 L-11.63567482935548,44.37095778934271 C-11.317535894583443,44.18047179913886 -11.035755695213993,44.0947531035471 -10.808513598948252,44.132850301587894 C-10.581271502682569,44.170947499628646 -10.41765719337127,44.304287692771325 -10.281311935611825,44.53287088101594 C-10.154056361703056,44.74240547024021 -10.117697626300583,44.95194005946444 -10.181325413254967,45.17099894819888 zM-1.5915741744113348,40.42789779212291 C-1.6733813290670128,40.6850538788981 -1.8097265868264572,40.92316136665292 -1.9915202638389928,41.123171656366985 C-2.1733139408515854,41.32318194608105 -2.4005560371172123,41.48509503775428 -2.6823362364867194,41.58986233236641 C-2.9641164358562264,41.694629626978546 -3.22771726752444,41.7327268250193 -3.491318099192654,41.694629626978546 C-3.7549189308608675,41.656532428937794 -4.000340394827845,41.570813733346036 -4.227582491093472,41.427949240693145 C-4.454824587359212,41.285084748040255 -4.654797632073041,41.0945987578364 -4.827501625234959,40.86601556959175 C-5.000205618396876,40.627908081836935 -5.145640560006996,40.36122769555157 -5.245627082363853,40.06597441073558 C-5.345613604720768,39.761196826409424 -5.409241391675209,39.465943541593475 -5.418331075525771,39.17069025677748 C-5.427420759376446,38.87543697196149 -5.391062023973916,38.58970798665571 -5.309254869318238,38.33255189988052 C-5.227447714662617,38.075395813105324 -5.091102456903172,37.83728832535051 -4.909308779890637,37.63727803563644 C-4.727515102878044,37.437267745922384 -4.50027300661236,37.275354654249156 -4.21849280724291,37.17058735963702 C-3.936712607873403,37.06582006502488 -3.6731117762051895,37.02772286698413 -3.409510944536976,37.06582006502488 C-3.145910112868762,37.10391726306564 -2.900488648901785,37.1896359586574 -2.673246552636101,37.33250045131029 C-2.4460044563703605,37.47536494396318 -2.2460314116565883,37.66585093416703 -2.073327418494614,37.89443412241168 C-1.9006234253326966,38.1325416101665 -1.7551884837226908,38.39922199645186 -1.6552019613657194,38.69447528126785 C-1.5552154390088617,38.99925286559401 -1.4915876520544202,39.29450615040996 -1.482497968203802,39.58975943522594 C-1.4734082843531269,39.885012720041935 -1.5097670197557136,40.161217405837505 -1.5915741744113348,40.42789779212291 zM12.18838654314095,37.66585093416703 C12.133848440037127,38.075395813105324 12.015682549978976,38.437319194492616 11.842978556817002,38.77066967734936 C11.670274563655084,39.104020160206105 11.433942783538782,39.389749145511885 11.143072900318657,39.618332333756534 C10.852203017098532,39.84691552200118 10.506795030774697,40.00882861367441 10.106848941347096,40.07549871024579 C9.706902851919438,40.1516931063273 9.325136130193016,40.13264450730696 8.979728143869181,40.018352913184614 C8.63432015754529,39.904061319062315 8.31618122277331,39.72309962836862 8.043490707254477,39.475467841103644 C7.770800191735589,39.22783605383866 7.543558095469962,38.923058469512455 7.361764418457369,38.56113508812517 C7.179970741444777,38.1992117067378 7.052715167536007,37.799191127309754 6.979997696730948,37.37059764935108 C6.9072802259260015,36.9324798718822 6.8981905420753264,36.51341069343374 6.95272864517915,36.11339011400561 C7.007266748282859,35.70384523506736 7.125432638341067,35.34192185367999 7.2981366315029845,35.00857137082325 C7.470840624664902,34.6752208879665 7.707172404781204,34.38949190266072 7.998042288001329,34.16090871441611 C8.288912171221455,33.9323255261715 8.63432015754529,33.7704124344982 9.034266246972948,33.7037423379269 C9.434212336400606,33.62754794184531 9.815979058126914,33.64659654086572 10.161387044450862,33.76088813498803 C10.506795030774697,33.87517972911033 10.824933965546734,34.05614141980398 11.097624481065509,34.303773207069 C11.37031499658434,34.55140499433403 11.597557092850082,34.85618257866019 11.779350769862617,35.21810596004752 C11.96114444687521,35.58002934143481 12.088400020783979,35.98004992086293 12.161117491589039,36.4086433988216 C12.233834962394042,36.837236876780274 12.24292464624466,37.256306055228734 12.18838654314095,37.66585093416703 zM40.65727636330823,43.44710073685398 C40.56637952480196,43.6852082246088 40.430034267042515,43.894742813833076 40.23915090617933,44.06618020501651 C40.04826754531615,44.24714189571016 39.802846081349145,44.39000638836305 39.49379683042784,44.49477368297518 C39.18474757950648,44.59954097758732 38.8120705416307,44.65668677464849 38.366676032949925,44.65668677464849 H35.83974392247532 V37.865861223881055 H38.21215140748927 C38.603007813066256,37.865861223881055 38.93932611553953,37.91348272143202 39.230195998759626,38.008725716533945 C39.52106588197972,38.10396871163587 39.766487345946636,38.237308904778594 39.957370706809854,38.39922199645186 C40.15734375152371,38.56113508812517 40.302778693133746,38.75162107832902 40.40276521549063,38.97067996706342 C40.50275173784755,39.18973885579786 40.55728984095134,39.41832204404251 40.55728984095134,39.6659538313075 C40.55728984095134,39.99930431416424 40.47548268629566,40.313606198000606 40.320958060834954,40.59933518330639 C40.1664334353743,40.88506416861217 39.93919133910859,41.113647356856774 39.639231772037874,41.266036149019875 C39.97555007451112,41.37080344363201 40.24824059002998,41.542240834815445 40.466393002445045,41.77082402306006 C40.68454541486011,42.008931510814875 40.79362162106767,42.30418479563086 40.79362162106767,42.675632476528364 C40.79362162106767,42.951837162323976 40.748173201814524,43.208993249099166 40.65727636330823,43.44710073685398 zM45.64751279730305,39.50404073963423 H43.31146404769163 V40.561237985265635 H45.51116753954366 V42.06607730787604 H43.31146404769163 V43.104225954487035 H45.64751279730305 V44.65668677464849 H41.46625822601413 V37.865861223881055 H45.64751279730305 V39.50404073963423 zM49.72878084623511,39.55166223718519 V44.65668677464849 H47.89266470840823 V39.54213793767498 H46.32923908610019 V37.865861223881055 H51.29220646854316 V39.54213793767498 H49.72878084623511 V39.55166223718519 z" fill="white" id="svg_3" class="" transform="rotate(-90.32551574707031 18.133056640625004,40.627899169921875) "/></g></svg>