<?xml version="1.0" encoding="UTF-8"?>
<svg width="36px" height="80px" viewBox="0 0 36 80" version="1.1" xmlns="http://www.w3.org/2000/svg" xmlns:xlink="http://www.w3.org/1999/xlink">
    <!-- Generator: Sketch 46.2 (44496) - http://www.bohemiancoding.com/sketch -->
    <title>bookieheader/ladbrokes</title>
    <desc>Created with Sketch.</desc>
    <defs></defs>
    <g id="Page-1" stroke="none" stroke-width="1" fill="none" fill-rule="evenodd">
        <g id="bookieheader/ladbrokes" fill="#FFFFFF">
            <path d="M1.43512916,37.7316208 L-0.481319087,45.0398326 C-0.531956948,45.2003156 -0.700230452,45.3257417 -0.849027857,45.3257417 L-2.04018614,45.3257417 C-2.2076806,45.3257417 -2.26299272,45.2003156 -2.23494714,45.0639829 C-2.19209972,44.8255955 -2.1492523,44.6214859 -2.1492523,44.6214859 C-3.01087497,45.2525116 -3.78134948,45.4418193 -4.49027953,45.4418193 C-5.84503705,45.4418193 -6.82663249,44.5428025 -6.67861413,42.7977439 C-6.67471891,42.6793292 -6.59291929,42.2913653 -6.50566636,41.89639 C-6.40439064,41.4289636 -6.28208073,40.9257012 -6.19326972,40.6273273 C-5.59028966,38.3275894 -4.06414246,36.9432282 -1.69039538,36.9432282 C-0.751647357,36.9432282 0.357711304,37.0889095 1.22322919,37.3444359 C1.44837291,37.3981899 1.49511555,37.4846638 1.43512916,37.7316208 L1.43512916,37.7316208 Z M-2.11107914,38.5332571 C-3.383258,38.5332571 -3.93715829,39.4213672 -4.25500824,40.6273273 L-4.65076259,42.1472422 C-4.70607472,42.373944 -4.73723648,42.5733793 -4.76372397,42.7548965 C-4.8385122,43.5853574 -4.43185123,43.861139 -3.84445205,43.861139 C-3.28120323,43.861139 -2.64628237,43.6258677 -1.95838652,43.2441361 L-0.720485596,38.6275214 C-0.998604306,38.5745464 -1.58834062,38.5332571 -2.11107914,38.5332571 L-2.11107914,38.5332571 Z M21.9457997,37.222905 C22.0112394,36.991529 21.7970023,36.9401121 21.7487015,36.9401121 C21.1340358,36.9401121 20.3433062,37.0016565 19.4583122,37.6420307 L19.5315423,37.3420988 C19.5751688,37.1808367 19.4886949,37.0406087 19.3118519,37.0406087 L18.0311036,37.0406087 C17.862051,37.0406087 17.7140326,37.1722672 17.6704062,37.3420988 C17.6704062,37.3420988 15.9783226,43.7427243 15.6534613,44.9798462 C15.5942539,45.189409 15.6557984,45.3405436 15.8754888,45.3405436 L17.2006427,45.3405436 C17.3696952,45.3405436 17.5379687,45.2003156 17.5753628,45.0281469 L19.1404622,39.1058544 C20.1890554,38.603371 20.8411153,38.585453 21.3093207,38.585453 C21.45656,38.585453 21.6318449,38.4537946 21.6700181,38.2909744 C21.6700181,38.2909744 21.846082,37.6272289 21.9457997,37.222905 L21.9457997,37.222905 Z M49.1157383,37.2299164 C48.3289039,37.026586 47.4423518,36.9362168 46.5448931,36.9362168 C45.1472882,36.9362168 43.4154734,37.3865043 43.2417465,39.3496952 C43.1879925,40.0609623 43.5175281,40.7153593 44.0433828,41.1072184 L45.7268969,42.3334337 C46.0681182,42.5803907 46.1740682,42.8203362 46.1382321,43.0548284 C46.0953847,43.7333758 45.5360311,43.861139 44.8177526,43.861139 C44.4851008,43.861139 43.1638421,43.8003736 42.4751672,43.7100045 C42.2157456,43.6819589 42.1059004,43.8977541 42.0872033,43.9452757 L41.8558273,44.8606524 C41.8122008,45.0110079 41.8994537,45.1348759 42.0482511,45.1691539 C42.9386984,45.4114366 44.1914012,45.4511678 44.6806408,45.4511678 C46.4233623,45.4511678 47.9993683,44.6830304 48.170758,42.8359171 C48.2346396,42.1916477 48.0702613,41.5972371 47.2304518,40.9911409 L45.6162727,39.7937503 C45.3350378,39.6021054 45.2212974,39.4034492 45.2251926,39.2008978 C45.2882951,38.5776626 45.9676215,38.5192343 46.4093395,38.5192343 C47.0045291,38.5192343 48.0414366,38.585453 48.7168678,38.6976353 C48.96772,38.7389247 49.056531,38.515339 49.0962622,38.4054938 L49.3120574,37.5781491 C49.3120574,37.5781491 49.3954151,37.2914609 49.1157383,37.2299164 L49.1157383,37.2299164 Z M42.310789,40.9825714 C42.4159599,40.5128079 42.4673768,40.3897189 42.5133404,39.9495591 C42.6512312,38.2239766 41.851932,36.9362168 39.8965316,36.9362168 C37.6318507,36.9362168 36.0924597,37.9520902 35.353926,40.7036736 C35.353926,40.7036736 35.2386275,41.1072184 35.1326775,41.5434831 C35.0438665,41.9478069 34.9768687,42.373944 34.9675202,42.5001491 C34.7805496,44.7235407 36.3082549,45.4511678 37.6162698,45.4511678 C38.9398656,45.4511678 39.5958206,45.3787167 40.5984502,45.2018737 C40.8843594,45.1691539 40.9334392,45.0639829 41.0035531,44.8287116 C41.0035531,44.8287116 41.2886832,43.6352162 41.3034851,43.6009383 C40.6226006,43.7045511 39.336399,43.8003736 38.2667715,43.8003736 C37.1581919,43.8003736 36.8068431,43.2682865 36.8722828,42.463534 C36.8808523,42.268773 36.9423967,42.0677797 36.9930346,41.8621121 L41.7896085,41.8621121 C41.9937181,41.8621121 42.1222603,41.737465 42.1775724,41.5029728 C42.1775724,41.5029728 42.2282103,41.3183394 42.310789,40.9825714 L42.310789,40.9825714 Z M39.461046,38.603371 C40.2642404,38.603371 40.6763546,39.0645651 40.6031245,39.9191763 C40.5867646,40.1217278 40.5423591,40.2954546 40.5010697,40.4761928 L37.3693128,40.4761928 C37.6489896,39.4034492 38.2737829,38.603371 39.461046,38.603371 L39.461046,38.603371 Z M36.4258906,37.3444359 C36.5676766,37.2205679 36.5902688,37.026586 36.3324053,37.026586 L34.5772191,37.026586 C34.4354331,37.026586 34.3294831,37.0694334 34.2110685,37.2057661 L31.0068605,40.3710219 L32.7005021,34.0046743 L30.7458807,34.0046743 C30.7458807,34.0046743 28.7024483,41.8114742 27.846279,45.0203565 C27.8057687,45.1590263 27.8875683,45.3257417 28.0698646,45.3257417 L29.4207269,45.3257417 C29.5780938,45.3257417 29.7658434,45.189409 29.7931099,45.0203565 L30.7139399,41.5146585 L32.2135996,45.0234726 C32.2689118,45.1629215 32.397454,45.3210675 32.5750761,45.3210675 L34.2430093,45.3210675 C34.3731096,45.3210675 34.5585221,45.2003156 34.4595835,44.9821833 C34.1409545,44.2935084 32.5556,40.9911409 32.5556,40.9911409 L36.4258906,37.3444359 L36.4258906,37.3444359 Z M28.4173182,39.8256911 C28.5575461,38.283963 27.7395499,36.9401121 25.7265002,36.9401121 C23.4142976,36.9401121 21.8858133,38.1826873 21.2360906,40.6000608 C21.2360906,40.6000608 21.0522362,41.2630272 20.9579719,41.6206084 C20.871498,41.9392374 20.8029421,42.268773 20.7850241,42.5001491 C20.6502495,44.0496676 21.45656,45.4511678 23.4727259,45.4511678 C25.8012884,45.4511678 27.2853673,44.2226154 27.9514499,41.7826496 L28.2568351,40.639792 C28.343309,40.3118145 28.3939469,40.0796594 28.4173182,39.8256911 L28.4173182,39.8256911 Z M25.2910146,38.603371 C26.1503002,38.603371 26.5211251,39.0801459 26.4432207,39.9495591 C26.4221865,40.1458781 26.4003733,40.3616733 26.3325965,40.6000608 L26.0046189,41.7826496 C25.6361311,43.1693479 24.9458981,43.791025 23.9152229,43.791025 C23.049705,43.791025 22.6617411,43.3173663 22.7287389,42.4487322 C22.7443198,42.3225271 22.7567845,42.1721716 22.890001,41.6704673 C22.9515455,41.3814419 23.1751311,40.6000608 23.1751311,40.6000608 C23.5740016,39.1416904 24.3865445,38.603371 25.2910146,38.603371 L25.2910146,38.603371 Z M16.0889469,40.6242112 C16.1699674,40.3164888 16.2128149,40.0266844 16.2455347,39.7283106 C16.3779722,38.0642726 15.5755569,36.9401121 13.5500425,36.9401121 C13.1963565,36.9401121 12.6642694,36.9681577 12.1095901,37.026586 L12.9057731,34.0046743 L10.9589421,34.0046743 C10.9589421,34.0046743 8.61246156,42.940309 8.12711715,44.746912 C8.05310797,45.0110079 8.4130263,45.0702153 8.44107188,45.0780057 C9.28711367,45.3109399 10.3645315,45.4511678 11.3056167,45.4511678 C13.736234,45.4511678 15.1681168,44.2226154 15.8022587,41.7655106 L16.0889469,40.6242112 L16.0889469,40.6242112 Z M13.1270216,38.5192343 C14.0945942,38.5192343 14.3875148,38.9617313 14.3057151,39.7594723 C14.2940295,40.0266844 14.2433916,40.3001289 14.1452321,40.6242112 L13.8585439,41.7655106 C13.5726347,42.8577303 12.993026,43.861139 11.7200681,43.861139 C11.1833068,43.861139 10.5881172,43.826082 10.3286955,43.773107 L11.6850111,38.6158357 C12.1197177,38.5690931 12.7819051,38.5192343 13.1270216,38.5192343 L13.1270216,38.5192343 Z M10.0272055,34.0046743 L8.06011936,34 L7.26861066,37.026586 C6.743535,36.9681577 6.2496211,36.9401121 5.89437703,36.9401121 C3.52764135,36.9401121 2.05836436,37.9544274 1.3844913,40.6242112 C1.3844913,40.6242112 1.16557994,41.4686949 1.09468693,41.7655106 C0.970818934,42.2874701 0.966923714,42.40978 0.95835423,42.5733793 C0.800987342,44.1937908 1.59639127,45.4511678 3.64060273,45.4511678 C4.58947833,45.4511678 5.71441787,45.3109399 6.7045828,45.0780057 C7.04969929,44.993869 7.13695222,44.9120694 7.20628714,44.6830304 L10.0272055,34.0046743 Z M5.47914658,38.5192343 C5.82348403,38.5192343 6.45373063,38.5690931 6.84948498,38.6158357 L5.49784364,43.773107 C5.19635361,43.826082 4.59648972,43.861139 4.07141407,43.861139 C3.10851568,43.861139 2.79923521,43.490314 2.87246535,42.6793292 C2.88103483,42.4954749 2.91687085,42.2765635 3.02983223,41.7655106 C3.08748149,41.4982985 3.32820609,40.6242112 3.32820609,40.6242112 C3.68734537,39.2008978 4.2100839,38.5192343 5.47914658,38.5192343 L5.47914658,38.5192343 Z M-7.32054639,44.9494635 C-7.36339381,45.1512359 -7.46700666,45.2018737 -7.68825516,45.2641972 C-8.16658818,45.3537873 -10.0916059,45.3537873 -10.8761032,45.3537873 C-12.2300817,45.3537873 -13.369044,44.3901099 -12.8875948,42.5733793 C-12.2300817,40.0882289 -10.6330415,34.0046743 -10.6330415,34.0046743 L-8.59817856,34.0046743 L-10.8207911,42.4526274 C-10.8519529,42.6286914 -10.8831146,42.7977439 -10.8909051,42.9434252 C-10.9454381,43.5214758 -10.6922488,43.7045511 -9.99967872,43.7045511 L-7.28237323,43.7045511 C-7.19122509,43.7045511 -7.00659166,43.773107 -7.07047327,44.0239592 C-7.18343465,44.4212716 -7.32054639,44.9494635 -7.32054639,44.9494635 L-7.32054639,44.9494635 Z" id="Ladbrokes-light" transform="translate(18.161842, 39.725584) rotate(-90.000000) translate(-18.161842, -39.725584) "></path>
        </g>
    </g>
</svg>