<svg width="48" height="124" viewBox="0 0 48 124" fill="none" xmlns="http://www.w3.org/2000/svg">
<g clip-path="url(#clip0_16862_148016)">
<path d="M22.6407 51.9309H21.5681C21.2798 51.9309 20.897 52.0258 20.897 52.843V54.3654H23.3127V52.843C23.3127 52.2629 23.0672 51.9309 22.6407 51.9309Z" fill="#26E36B"/>
<path d="M25.1846 52.5172V54.3654H27.6556V52.9054C27.6556 51.9296 27.4101 51.5493 26.7802 51.5493H26.0225C25.4671 51.5493 25.1846 51.8751 25.1846 52.5172Z" fill="#26E36B"/>
<path d="M21.6196 62.4854L23.4017 62.978L25.492 63.5547V61.431L23.4046 62.0002L21.6196 62.4854Z" fill="#26E36B"/>
<path d="M15.1473 72.6666L15.461 73.8404C16.0768 76.138 18.4388 78 20.7376 78H39.9997L32.3036 49.2825L31.9811 48.08C31.6732 46.9312 30.4928 46 29.3432 46H8L15.1473 72.6666ZM28.3854 69.3824H28.4179C29.0615 69.3912 29.5804 69.9142 29.5804 70.5599V72.0283H21.3501V74.7928H20.1551C19.4994 74.7928 18.9672 74.259 18.9672 73.6036V66.6184H20.7659C21.0759 66.6184 21.3276 66.8593 21.3501 67.1634V69.3824H28.3854ZM29.5812 60.3259L27.5733 60.8818V64.0748L29.094 64.4959L29.1984 64.5242C29.4219 64.6082 29.5812 64.8221 29.5812 65.0747V67.3873L18.9676 64.1522V62.4808C18.9676 61.4755 19.6284 60.6255 20.5387 60.3388L20.5533 60.3346L29.5808 57.5693V60.3259H29.5812ZM26.962 49.1406C28.6267 49.1406 29.5812 50.2869 29.5812 52.2862V56.8366H18.9676V52.6104C18.9676 50.5254 19.759 49.5114 21.3867 49.5114H22.4373C23.1504 49.5114 23.6638 49.7951 24.0275 50.3972C24.3641 49.6408 25.1105 49.1406 25.9572 49.1406H26.962Z" fill="#26E36B"/>
<path d="M28.386 69.3824H28.4184C29.0621 69.3912 29.5809 69.9142 29.5809 70.56V72.0283H21.3506V74.7928H20.1557C19.4999 74.7928 18.9678 74.259 18.9678 73.6036V66.6184H20.7665C21.0764 66.6184 21.3281 66.8593 21.3506 67.1634V69.3824H28.386Z" fill="#004045"/>
<path d="M20.5539 60.3346L20.5393 60.3388C19.629 60.6255 18.9683 61.4755 18.9683 62.4808V64.1522L29.5818 67.3873V65.0751C29.5818 64.8225 29.4225 64.6087 29.199 64.5246L29.0946 64.4963L27.5739 64.0748V60.8822L29.5818 60.3259V57.5693L20.5539 60.3346ZM25.4927 63.5551L23.4019 62.978L21.6203 62.4858L23.4048 62.0002L25.4927 61.4314V63.5551Z" fill="#004045"/>
<path d="M24.0281 50.3976C23.6645 49.7951 23.151 49.5113 22.4379 49.5113H21.3873C19.7592 49.5113 18.9683 50.5253 18.9683 52.6104V56.837H29.5818V52.2862C29.5818 50.2873 28.6269 49.1406 26.9627 49.1406H25.9578C25.1111 49.1406 24.3647 49.6412 24.0281 50.3976ZM20.898 54.3654V52.843C20.898 52.0258 21.2808 51.9309 21.5691 51.9309H22.6418C23.0682 51.9309 23.3137 52.2633 23.3137 52.843V54.3654H20.898ZM26.7808 51.5493C27.4108 51.5493 27.6563 51.9296 27.6563 52.9054V54.3654H25.1856V52.5176C25.1856 51.8756 25.4677 51.5493 26.0232 51.5493H26.7808Z" fill="#004045"/>
</g>
<defs>
<clipPath id="clip0_16862_148016">
<rect width="32" height="32" fill="white" transform="matrix(0 -1 1 0 8 78)"/>
</clipPath>
</defs>
</svg>
