<?xml version="1.0" encoding="utf-8"?>
<svg xmlns="http://www.w3.org/2000/svg" xmlns:xlink="http://www.w3.org/1999/xlink" baseProfile="tiny">
    
        <path d="M1239.5 742.8h-171.1l-18.3-261.6h55.2c49.5 0 89.5-43.1 89.5-96.2s-.2-10.1-.6-15.2H894.8c-14.6 0-28.7 6.2-39 17.4L696 559l-79.1 85.1-74.5 80.1c-10.4 11.1-16.1 25.9-16.1 41.6s5.7 30.5 16.1 41.6l121.3 130.4c18.7 20.1 44.1 31.5 70.6 31.5h280.9l5.3 74.3 1.2 16.7c3.7 50.3 34.3 94.8 78 113.3l114.8 51.2c9.3 4.1 19.2 6.1 29.5 6.1s27.8-3.9 40-11.4c20.6-13 35.1-36 38.7-61.7l36.7-276.3c4.9-74.8-50.1-138.4-119.9-138.4v-.3zM969.9 481.1h9.8L998 742.7H830.4l-15.4-2c-5-1.1-10-3.4-15-6.5l-.5-.3c-5-19.3-8.6-39.1-8.6-60.3 0-48.1 44.7-192.4 179-192.4zm-124 410.7c-29.8 0-53.9-25.1-55-56.4L794 817h210.4l3.4 74.8H845.9zm409.3 254.7c-.5 3.4-2.4 6.6-4.8 8.1-2.8 1.7-6.3 2-9.3.7L1126 1104c-19.4-8.2-33-27.9-34.6-50l-.8-11h181.1l-16.6 103.5h.1zm25.5-178h-196.3l-10.8-152h161.9c29.8 0 53.9 25.1 55 56.4l-9.8 95.6zm-546.4 74.7h166.6c12.2 0 21.3 11.4 18.4 23.2-28.5 117.7-138.5 227.6-250.7 197.3-53.8-14.5-69.9-26.5-74.7-32.1-6.9-8-13.7-16-20.9-23.8l-42.6-45.8c-24.2-24.9-47.7-49.8-65.6-68.9l-31.6-34c-.4-.4-.6-.7-.6-.7l-413-443.9C3.4 597-3.9 571.4 2.1 547.6 79.7 238.8 348.9 0 668.6 0s429.4 136.7 494.7 265.8c6.8 13.4-3.3 29.6-17.4 29.6H895.1c-33.1 0-64.8 14.1-88.2 39.3L493.7 671.5c-23.3 25.1-36.2 58.5-36.2 94.1s12.9 69 36.2 94.1L615 990.1c31.7 34.1 74.7 53.2 119.5 53.2h-.2z" />
    
</svg>